<svg width="394" height="36" viewBox="0 0 394 36" fill="none" xmlns="http://www.w3.org/2000/svg"><path d="M20.412 17.992c0-5.148-3.06-8.892-7.308-8.892-1.98 0-3.528.828-5.364 2.952h-.216V.28h-.36L.828 2.008v.144l1.98 1.8v23.58c2.124.684 4.752 1.044 6.624 1.044 6.48 0 10.98-4.356 10.98-10.584zm-4.5 2.124c0 4.356-2.16 7.02-5.436 7.02-1.224 0-2.268-.36-2.952-.864V13.384c.612-.792 1.512-1.296 2.7-1.296 3.312 0 5.688 3.384 5.688 8.028zm13.521 8.424c2.232 0 4.32-1.08 6.3-3.276h.216l.432 3.276 6.012-1.476v-.18l-1.836-1.692V9.1h-.36l-6.336 1.728v.18l1.98 1.8v11.16c-1.368 1.152-2.628 1.728-3.888 1.728-1.836 0-2.916-1.152-2.916-3.06V9.064h-.36l-6.336 1.728v.18l1.98 1.8V23.68c0 2.844 2.052 4.86 5.112 4.86zm21.97 0c4.68 0 7.668-2.484 7.668-6.336 0-6.228-9.324-4.5-9.324-9.036 0-1.728 1.26-2.916 3.06-2.916.468 0 .9.072 1.224.216l3.816 3.24h.18v-3.636c-1.224-.576-3.312-.972-5.076-.972-4.356 0-7.236 2.412-7.236 5.976 0 6.264 9.288 4.536 9.288 9.072 0 1.908-1.368 3.204-3.312 3.204a3.224 3.224 0 01-1.512-.36l-4.716-3.816h-.18v4.068c1.26.684 4.14 1.296 6.12 1.296zM65.837 5.356c1.62 0 2.7-.972 2.7-2.556s-1.08-2.52-2.7-2.52c-1.656 0-2.736.936-2.736 2.52s1.08 2.556 2.736 2.556zM69.869 28v-.144L68.177 26.2V9.1h-.36l-6.336 1.728v.144l1.98 1.8V26.2l-1.656 1.656V28h8.064zm9.347-14.364c1.368-1.152 2.7-1.692 3.996-1.692 1.872 0 3.024 1.152 3.024 3.024v11.16l-1.692 1.692V28h8.064v-.18l-1.656-1.62V13.96c0-2.88-2.124-4.86-5.22-4.86-2.304 0-4.428 1.08-6.408 3.276h-.216L78.856 9.1h-.36l-5.976 1.656v.18l1.98 1.8V26.2l-1.656 1.62V28h8.064v-.18l-1.692-1.62V13.636zm24.449 14.904c4.356 0 7.416-2.664 8.244-7.092l-.18-.108c-1.512 2.52-3.636 3.816-6.192 3.816-3.96 0-6.588-3.06-6.804-7.812h12.924c-.972-5.436-3.636-8.244-7.812-8.244-5.112 0-8.964 4.284-8.964 10.044 0 5.616 3.6 9.396 8.784 9.396zm-.756-18.108c2.196 0 3.492 1.656 4.248 5.688h-8.424c.18-3.636 1.692-5.688 4.176-5.688zM120.38 28.54c4.68 0 7.668-2.484 7.668-6.336 0-6.228-9.324-4.5-9.324-9.036 0-1.728 1.26-2.916 3.06-2.916.468 0 .9.072 1.224.216l3.816 3.24h.18v-3.636c-1.224-.576-3.312-.972-5.076-.972-4.356 0-7.236 2.412-7.236 5.976 0 6.264 9.288 4.536 9.288 9.072 0 1.908-1.368 3.204-3.312 3.204a3.224 3.224 0 01-1.512-.36l-4.716-3.816h-.18v4.068c1.26.684 4.14 1.296 6.12 1.296zm16.594 0c4.68 0 7.668-2.484 7.668-6.336 0-6.228-9.324-4.5-9.324-9.036 0-1.728 1.26-2.916 3.06-2.916.468 0 .9.072 1.224.216l3.816 3.24h.18v-3.636c-1.224-.576-3.312-.972-5.076-.972-4.356 0-7.236 2.412-7.236 5.976 0 6.264 9.288 4.536 9.288 9.072 0 1.908-1.368 3.204-3.312 3.204a3.224 3.224 0 01-1.512-.36l-4.716-3.816h-.18v4.068c1.26.684 4.14 1.296 6.12 1.296zm23.972 0c2.484 0 4.68-1.368 5.724-3.6l-.144-.108c-.828.72-1.836 1.116-2.808 1.116-1.512 0-2.556-.864-2.556-2.772V11.44h4.68l.252-1.8h-4.932V5.968h-.612l-6.588 5.292v.18h2.484v13.896c.504 2.232 2.412 3.204 4.5 3.204zm16.235 0c5.544 0 9.36-4.104 9.36-9.936 0-5.688-3.636-9.504-9-9.504-5.544 0-9.324 4.104-9.324 9.936 0 5.688 3.6 9.504 8.964 9.504zm.612-1.368c-2.844 0-4.716-3.636-4.716-9.324 0-4.824 1.404-7.416 3.852-7.416 2.844 0 4.752 3.636 4.752 9.324 0 4.824-1.44 7.416-3.888 7.416zm25.419-13.536c1.368-1.152 2.7-1.692 3.996-1.692 1.872 0 3.024 1.152 3.024 3.024v11.16l-1.692 1.692V28h8.064v-.18l-1.656-1.62V13.96c0-2.88-2.124-4.86-5.22-4.86-2.304 0-4.428 1.08-6.408 3.276h-.216l-.252-3.276h-.36l-5.976 1.656v.18l1.98 1.8V26.2l-1.656 1.62V28h8.064v-.18l-1.692-1.62V13.636zm24.449 14.904c4.356 0 7.416-2.664 8.244-7.092l-.18-.108c-1.512 2.52-3.636 3.816-6.192 3.816-3.96 0-6.588-3.06-6.804-7.812h12.924c-.972-5.436-3.636-8.244-7.812-8.244-5.112 0-8.964 4.284-8.964 10.044 0 5.616 3.6 9.396 8.784 9.396zm-.756-18.108c2.196 0 3.492 1.656 4.248 5.688h-8.424c.18-3.636 1.692-5.688 4.176-5.688zM255.945 28l5.184-16.02 1.512-2.196V9.64h-5.22v.144l2.196 2.16-2.952 10.26-4.212-12.564h-2.448l-4.464 12.852-3.06-11.052 1.656-1.62v-.18h-7.992v.18l1.368 1.62L242.589 28h2.34l4.536-13.032L253.785 28h2.16zm23.842 0v-.18l-1.692-1.62V13.672c1.368-1.152 2.7-1.728 3.96-1.728 1.872 0 3.06 1.152 3.06 3.06V26.2l-1.692 1.62v.216h8.064v-.216l-1.656-1.62V13.96c0-2.88-2.16-4.86-5.256-4.86-2.232 0-4.248 1.008-6.264 3.168h-.216V.28h-.36l-6.336 1.692v.18l1.98 1.764V26.2l-1.656 1.548V28h8.064zm22.757.54c4.356 0 7.416-2.664 8.244-7.092l-.18-.108c-1.512 2.52-3.636 3.816-6.192 3.816-3.96 0-6.588-3.06-6.804-7.812h12.924c-.972-5.436-3.636-8.244-7.812-8.244-5.112 0-8.964 4.284-8.964 10.044 0 5.616 3.6 9.396 8.784 9.396zm-.756-18.108c2.196 0 3.492 1.656 4.248 5.688h-8.424c.18-3.636 1.692-5.688 4.176-5.688zm15.311-5.076c1.62 0 2.7-.972 2.7-2.556s-1.08-2.52-2.7-2.52c-1.656 0-2.736.936-2.736 2.52s1.08 2.556 2.736 2.556zM321.131 28v-.144l-1.692-1.656V9.1h-.36l-6.336 1.728v.144l1.98 1.8V26.2l-1.656 1.656V28h8.064zm10.535 7.2c5.724 0 10.08-2.988 10.08-6.948 0-1.872-.936-3.42-2.412-3.888h-9.36c-1.476 0-2.448-.828-2.448-2.016 0-.72.432-1.332 1.188-1.656.9.288 1.872.432 2.916.432 4.356 0 7.704-2.7 7.704-6.048 0-1.8-.972-3.42-2.628-4.212l.036-.144 4.212 1.116h.18V9.028h-.18l-4.968 1.044a9.158 9.158 0 00-4.176-.972c-4.212 0-7.524 2.736-7.524 6.192 0 2.268 1.44 4.14 3.672 5.112v.072c-2.088.576-3.456 2.124-3.456 4.032 0 1.368.72 2.412 1.8 2.988v.144l-2.304.972c-.36.324-.54.9-.54 1.584 0 2.88 3.42 5.004 8.208 5.004zm.432-15.228c-1.944 0-3.24-1.98-3.24-5.364 0-2.844.936-4.356 2.664-4.356 1.98 0 3.276 2.016 3.276 5.364 0 2.844-.936 4.356-2.7 4.356zm-5.724 9.396c0-.648.18-1.224.504-1.584a5.49 5.49 0 001.764.288h7.524c1.512 0 2.232.612 2.232 1.872 0 2.304-2.448 3.888-5.688 3.888-3.6 0-6.336-1.944-6.336-4.464zM351.506 28v-.18l-1.692-1.62V13.672c1.368-1.152 2.7-1.728 3.96-1.728 1.872 0 3.06 1.152 3.06 3.06V26.2l-1.692 1.62v.216h8.064v-.216l-1.656-1.62V13.96c0-2.88-2.16-4.86-5.256-4.86-2.232 0-4.248 1.008-6.264 3.168h-.216V.28h-.36l-6.336 1.692v.18l1.98 1.764V26.2l-1.656 1.548V28h8.064zm20.237.54c2.484 0 4.68-1.368 5.724-3.6l-.144-.108c-.828.72-1.836 1.116-2.808 1.116-1.512 0-2.556-.864-2.556-2.772V11.44h4.68l.252-1.8h-4.932V5.968h-.612l-6.588 5.292v.18h2.484v13.896c.504 2.232 2.412 3.204 4.5 3.204zm13.82 0c4.68 0 7.668-2.484 7.668-6.336 0-6.228-9.324-4.5-9.324-9.036 0-1.728 1.26-2.916 3.06-2.916.468 0 .9.072 1.224.216l3.816 3.24h.18v-3.636c-1.224-.576-3.312-.972-5.076-.972-4.356 0-7.236 2.412-7.236 5.976 0 6.264 9.288 4.536 9.288 9.072 0 1.908-1.368 3.204-3.312 3.204a3.224 3.224 0 01-1.512-.36l-4.716-3.816h-.18v4.068c1.26.684 4.14 1.296 6.12 1.296z" fill="#193526"/></svg>