<svg width="382" height="20" viewBox="0 0 382 20" fill="none" xmlns="http://www.w3.org/2000/svg"><path d="M5.498 15.18c2.97 0 5.076-1.962 5.076-5.076V1.86h-1.53v8.298c0 2.16-1.44 3.6-3.546 3.6-2.16 0-3.51-1.548-3.51-3.6V1.86H.458v8.244c0 3.06 1.998 5.076 5.04 5.076zM13.11 15h1.476V9.528c0-1.962 1.17-3.132 2.844-3.132 1.729 0 2.683 1.08 2.683 2.754V15h1.476V9.402c0-1.908 1.206-3.006 2.826-3.006 1.782 0 2.771 1.188 2.771 2.898V15h1.494V9.276c0-2.538-1.421-4.194-4.122-4.194-1.62 0-2.88.81-3.491 2.016-.523-1.224-1.657-2.016-3.384-2.016-1.422 0-2.502.63-3.114 1.62V5.28H13.11V15zm23.218.198c2.753 0 4.95-2.088 4.95-5.058 0-2.97-2.233-5.058-4.932-5.058-1.44 0-2.916.738-3.672 1.98V5.28h-1.44v13.464h1.457v-5.418c.756 1.206 2.197 1.872 3.636 1.872zm-.127-1.386c-2.07 0-3.636-1.638-3.636-3.69 0-2.016 1.567-3.69 3.637-3.69 2.034 0 3.581 1.62 3.581 3.69 0 2.124-1.547 3.69-3.581 3.69zm11.874 1.386c1.422 0 2.862-.684 3.636-1.872v5.418h1.44V5.28h-1.44v1.71c-.774-1.188-2.232-1.908-3.636-1.908-2.718 0-4.95 2.088-4.95 5.058 0 2.97 2.196 5.058 4.95 5.058zm.126-1.386c-2.034 0-3.582-1.566-3.582-3.69 0-2.07 1.548-3.69 3.582-3.69 2.07 0 3.618 1.674 3.618 3.69 0 2.052-1.548 3.69-3.618 3.69zm11.463 1.386c1.476 0 2.628-.72 3.276-1.8V15h1.44V5.28h-1.476v5.382c0 1.872-1.278 3.186-2.988 3.186-1.872 0-2.844-1.224-2.844-3.114V5.28h-1.494v5.526c0 2.736 1.44 4.392 4.086 4.392zm10.24 0c1.674 0 3.168-.72 4.032-1.908V15h1.44V8.808c0-2.196-1.494-3.726-4.266-3.726-2.016 0-3.42.828-4.392 2.088l1.278.81c.666-1.026 1.638-1.638 3.096-1.638 1.89 0 2.844.99 2.844 2.466v.378h-3.078c-2.718 0-4.41 1.152-4.41 3.15 0 1.566 1.134 2.862 3.456 2.862zm.27-1.296c-1.53 0-2.214-.72-2.214-1.674 0-1.206.954-1.854 2.97-1.854h3.006v1.332c-.774 1.44-2.304 2.196-3.762 2.196zM82.584 15h5.796c2.484 0 4.158-1.404 4.158-3.708 0-1.476-.738-2.574-2.016-3.096 1.134-.558 1.746-1.584 1.746-2.844 0-2.124-1.62-3.492-4.068-3.492h-5.616V15zm5.706-6.066c1.8 0 2.736.954 2.736 2.34 0 1.368-1.044 2.34-2.664 2.34h-4.284v-4.68h4.212zm-.108-5.706c1.602 0 2.592.864 2.592 2.124 0 1.26-.864 2.196-2.466 2.196h-4.23v-4.32h4.104zm9.724 11.97c1.674 0 3.168-.72 4.032-1.908V15h1.44V8.808c0-2.196-1.494-3.726-4.266-3.726-2.016 0-3.42.828-4.392 2.088l1.278.81c.666-1.026 1.638-1.638 3.096-1.638 1.89 0 2.844.99 2.844 2.466v.378H98.86c-2.718 0-4.41 1.152-4.41 3.15 0 1.566 1.134 2.862 3.456 2.862zm.27-1.296c-1.53 0-2.214-.72-2.214-1.674 0-1.206.954-1.854 2.97-1.854h3.006v1.332c-.774 1.44-2.304 2.196-3.762 2.196zM105.941 15h1.476V9.6c0-1.872 1.332-3.186 3.06-3.186 1.89 0 2.934 1.224 2.934 3.114V15h1.494V9.456c0-2.718-1.602-4.374-4.14-4.374-1.512 0-2.718.738-3.384 1.818V5.28h-1.44V15zm18.443 0h1.782l-4.086-5.652 3.852-4.068h-1.854l-5.148 5.49V.816h-1.458V15h1.458v-2.538l2.07-2.196L124.384 15zm7.854 0h1.494V5.28h-1.494V15zm-.414-12.708c0 .666.486 1.17 1.152 1.17.684 0 1.17-.504 1.17-1.17 0-.666-.486-1.17-1.17-1.17-.648 0-1.152.504-1.152 1.17zm8.019 12.906c2.538.018 3.834-1.494 3.834-3.024 0-1.998-1.836-2.466-3.51-2.79-1.512-.306-2.682-.504-2.682-1.512 0-.9.612-1.548 2.106-1.548 1.242 0 2.088.522 2.664 1.296l1.224-.828c-.864-1.062-2.088-1.728-3.888-1.728-2.304-.018-3.618 1.314-3.618 2.826 0 1.944 1.782 2.394 3.456 2.718 1.422.288 2.754.504 2.754 1.584 0 .972-.792 1.692-2.304 1.692-1.476 0-2.466-.63-3.132-1.584l-1.278.864c.864 1.242 2.25 2.034 4.374 2.034zM150.15 15h1.476V9.6c0-1.872 1.332-3.186 3.06-3.186 1.89 0 2.934 1.224 2.934 3.114V15h1.494V9.456c0-2.718-1.602-4.374-4.14-4.374-1.512 0-2.718.738-3.384 1.818V5.28h-1.44V15zm16.122.198c2.862 0 5.058-2.25 5.058-5.058 0-2.844-2.214-5.058-5.058-5.058-2.826 0-5.04 2.214-5.04 5.058 0 2.862 2.178 5.058 5.04 5.058zm0-1.404c-2.016 0-3.546-1.566-3.546-3.654 0-2.07 1.53-3.672 3.546-3.672s3.564 1.602 3.564 3.672c0 2.07-1.53 3.654-3.564 3.654zM175.573 15h1.44l2.988-7.704L182.989 15h1.332l3.366-9.72h-1.53l-2.538 7.65-2.898-7.65h-1.368l-2.97 7.704-2.448-7.704h-1.548l3.186 9.72zm23.096.198c2.862 0 5.058-2.25 5.058-5.058 0-2.844-2.214-5.058-5.058-5.058-2.826 0-5.04 2.214-5.04 5.058 0 2.862 2.178 5.058 5.04 5.058zm0-1.404c-2.016 0-3.546-1.566-3.546-3.654 0-2.07 1.53-3.672 3.546-3.672s3.564 1.602 3.564 3.672c0 2.07-1.53 3.654-3.564 3.654zm5.9-7.2h1.8V15h1.458V6.594h2.646V5.28h-2.646v-.738c0-2.016.324-2.34 2.304-2.34h.342V.816h-.45c-2.844 0-3.654.81-3.654 3.708v.756h-1.8v1.314zm7.33 0h1.8V15h1.458V6.594h2.646V5.28h-2.646v-.738c0-2.016.324-2.34 2.304-2.34h.342V.816h-.45c-2.844 0-3.654.81-3.654 3.708v.756h-1.8v1.314zm11.803 8.604c2.124 0 3.528-.918 4.518-2.466l-1.26-.738c-.666 1.188-1.71 1.872-3.258 1.872-2.052 0-3.474-1.314-3.69-3.168h8.586v-.666c0-2.88-2.106-4.95-4.95-4.95-2.916 0-5.076 2.232-5.076 5.094 0 2.844 2.016 5.022 5.13 5.022zm-.054-8.802c1.89 0 3.204 1.17 3.438 3.006h-7.038c.324-1.728 1.746-3.006 3.6-3.006zM230.816 15h1.458V9.672c0-2.142.936-3.078 2.556-3.078.522 0 .918.126 1.188.306l.612-1.404c-.378-.234-.954-.36-1.62-.36-1.386 0-2.358.684-2.772 1.98V5.28h-1.422V15zm7.629 0h1.494V5.28h-1.494V15zm-.414-12.708c0 .666.486 1.17 1.152 1.17.684 0 1.17-.504 1.17-1.17 0-.666-.486-1.17-1.17-1.17-.648 0-1.152.504-1.152 1.17zM242.558 15h1.476V9.6c0-1.872 1.332-3.186 3.06-3.186 1.89 0 2.934 1.224 2.934 3.114V15h1.494V9.456c0-2.718-1.602-4.374-4.14-4.374-1.512 0-2.718.738-3.384 1.818V5.28h-1.44V15zm16.085.198c1.422 0 2.898-.738 3.672-1.98v.954c0 2.196-1.386 3.582-3.528 3.582-1.692 0-2.628-.558-3.402-1.656l-1.224.972c.99 1.278 2.376 2.034 4.644 2.034 2.916 0 4.968-1.944 4.968-4.986V5.28h-1.476v1.746c-.774-1.224-2.232-1.944-3.636-1.944-2.736 0-4.968 2.088-4.968 5.058 0 2.97 2.196 5.058 4.95 5.058zm.126-1.386c-2.034 0-3.582-1.566-3.582-3.69 0-2.07 1.548-3.69 3.582-3.69 2.07 0 3.618 1.674 3.618 3.69 0 2.052-1.548 3.69-3.618 3.69zm14.971 1.386c1.674 0 3.168-.72 4.032-1.908V15h1.44V8.808c0-2.196-1.494-3.726-4.266-3.726-2.016 0-3.42.828-4.392 2.088l1.278.81c.666-1.026 1.638-1.638 3.096-1.638 1.89 0 2.844.99 2.844 2.466v.378h-3.078c-2.718 0-4.41 1.152-4.41 3.15 0 1.566 1.134 2.862 3.456 2.862zm.27-1.296c-1.53 0-2.214-.72-2.214-1.674 0-1.206.954-1.854 2.97-1.854h3.006v1.332c-.774 1.44-2.304 2.196-3.762 2.196zm11.348-7.308h1.8V15h1.458V6.594h2.646V5.28h-2.646v-.738c0-2.016.324-2.34 2.304-2.34h.342V.816h-.45c-2.844 0-3.654.81-3.654 3.708v.756h-1.8v1.314zm11.857 8.604c1.476 0 2.628-.72 3.276-1.8V15h1.44V5.28h-1.476v5.382c0 1.872-1.278 3.186-2.988 3.186-1.872 0-2.844-1.224-2.844-3.114V5.28h-1.494v5.526c0 2.736 1.44 4.392 4.086 4.392zm7.324-.198h1.476V.816h-1.476V15zm4.13 0h1.476V.816h-1.476V15zm12.018.198c2.538.018 3.834-1.494 3.834-3.024 0-1.998-1.836-2.466-3.51-2.79-1.512-.306-2.682-.504-2.682-1.512 0-.9.612-1.548 2.106-1.548 1.242 0 2.088.522 2.664 1.296l1.224-.828c-.864-1.062-2.088-1.728-3.888-1.728-2.304-.018-3.618 1.314-3.618 2.826 0 1.944 1.782 2.394 3.456 2.718 1.422.288 2.754.504 2.754 1.584 0 .972-.792 1.692-2.304 1.692-1.476 0-2.466-.63-3.132-1.584l-1.278.864c.864 1.242 2.25 2.034 4.374 2.034zm9.751 0c1.476 0 2.628-.72 3.276-1.8V15h1.44V5.28h-1.476v5.382c0 1.872-1.278 3.186-2.988 3.186-1.872 0-2.844-1.224-2.844-3.114V5.28h-1.494v5.526c0 2.736 1.44 4.392 4.086 4.392zm7.341-.198h1.494V5.28h-1.494V15zm-.414-12.708c0 .666.486 1.17 1.152 1.17.684 0 1.17-.504 1.17-1.17 0-.666-.486-1.17-1.17-1.17-.648 0-1.152.504-1.152 1.17zm3.697 4.302h1.89v5.472c0 2.142.972 3.078 2.754 3.078.81 0 1.44-.252 1.998-.684l-.774-1.17c-.324.306-.684.468-1.116.468-.828 0-1.404-.486-1.404-1.728V6.594h2.844V5.28h-2.844V2.202l-1.458.936V5.28h-1.89v1.314zm12.472 8.604c2.124 0 3.528-.918 4.518-2.466l-1.26-.738c-.666 1.188-1.71 1.872-3.258 1.872-2.052 0-3.474-1.314-3.69-3.168h8.586v-.666c0-2.88-2.106-4.95-4.95-4.95-2.916 0-5.076 2.232-5.076 5.094 0 2.844 2.016 5.022 5.13 5.022zm-.054-8.802c1.89 0 3.204 1.17 3.438 3.006h-7.038c.324-1.728 1.746-3.006 3.6-3.006zm16.259 8.802c2.862 0 5.058-2.25 5.058-5.058 0-2.844-2.214-5.058-5.058-5.058-2.826 0-5.04 2.214-5.04 5.058 0 2.862 2.178 5.058 5.04 5.058zm0-1.404c-2.016 0-3.546-1.566-3.546-3.654 0-2.07 1.53-3.672 3.546-3.672s3.564 1.602 3.564 3.672c0 2.07-1.53 3.654-3.564 3.654zm5.9-7.2h1.8V15h1.458V6.594h2.646V5.28h-2.646v-.738c0-2.016.324-2.34 2.304-2.34h.342V.816h-.45c-2.844 0-3.654.81-3.654 3.708v.756h-1.8v1.314z" fill="#193526"/></svg>