<svg width="163" height="33" viewBox="0 0 163 33" fill="none" xmlns="http://www.w3.org/2000/svg"><g filter="url(#filter0_d_220_28)"><rect x="4" y="3" width="155" height="24.038" rx="12.019" fill="#ED4536"/><path d="M36.414 19.727h1.846v-3.835h4.264v-1.716H38.26V11.98h4.264v-1.742h-6.11v9.49zm7.462 0h1.833v-7.02h-1.834v7.02zm-.234-8.996c0 .663.467 1.144 1.143 1.144.69 0 1.158-.48 1.158-1.144 0-.676-.468-1.17-1.157-1.17-.663 0-1.145.494-1.145 1.17zm3.496 8.996h1.807v-3.874c0-1.092.65-1.716 1.495-1.716.95 0 1.43.624 1.43 1.625v3.965h1.833V15.49c0-1.833-1.053-2.925-2.717-2.925-.87 0-1.599.39-2.054 1.027v-.884h-1.794v7.02zm11.107.143c.91 0 1.703-.416 2.197-1.105v.962h1.767V9.47h-1.768v4.134c-.48-.65-1.248-1.04-2.17-1.04-1.794 0-3.407 1.417-3.407 3.653 0 2.236 1.652 3.653 3.38 3.653zm.35-1.69a1.953 1.953 0 01-1.95-1.976c0-1.105.871-1.976 1.95-1.976 1.105 0 1.95.884 1.95 1.976s-.845 1.976-1.95 1.976zm12.814 1.677a4.86 4.86 0 004.875-4.875 4.868 4.868 0 00-4.875-4.875c-2.691 0-4.85 2.184-4.85 4.875s2.159 4.875 4.85 4.875zm0-1.807c-1.703 0-3.003-1.39-3.003-3.068 0-1.69 1.3-3.08 3.003-3.08 1.716 0 3.029 1.39 3.029 3.08 0 1.677-1.3 3.068-3.03 3.068zm8.826 1.82c.858 0 1.573-.39 2.028-1.027v.884l1.794-.013v-7.02l-1.82.013v3.861c0 1.092-.624 1.703-1.469 1.703-.962 0-1.43-.61-1.43-1.599v-3.965h-1.833v4.212c0 1.846 1.001 2.951 2.73 2.951zm4.853-5.577h1.3v2.951c0 1.911.858 2.613 2.327 2.613.65 0 1.222-.195 1.677-.533l-.819-1.404c-.208.182-.403.26-.65.26-.455 0-.767-.26-.767-1v-2.887h1.846v-1.586h-1.846v-2.56l-1.768 1.04v1.52h-1.3v1.586zm9.28 5.434h1.82v-6.59l2.769 3.756 2.847-3.822v6.656h1.794v-9.49h-1.703L98.97 14.15l-2.821-3.913h-1.781v9.49zm14.132.143c2.119 0 3.718-1.638 3.718-3.653 0-2.028-1.625-3.653-3.718-3.653-2.106 0-3.705 1.625-3.705 3.653 0 2.015 1.599 3.653 3.705 3.653zm.013-1.703c-1.079 0-1.924-.87-1.924-1.963 0-1.092.845-1.963 1.924-1.963 1.066 0 1.924.871 1.924 1.963s-.858 1.963-1.924 1.963zm4.882 1.56h1.781v-3.705c0-1.183.598-1.65 1.521-1.65.403 0 .741.103.936.246l.65-1.768a2.605 2.605 0 00-1.183-.273c-.897 0-1.599.377-1.937 1.21v-1.08h-1.768v7.02zm8.728.143c1.547 0 2.535-.637 3.237-1.625l-1.469-.858c-.351.572-.91.936-1.742.936-1.04 0-1.781-.572-2.015-1.482h5.577v-.676c0-2.08-1.521-3.6-3.627-3.6-2.093 0-3.679 1.624-3.679 3.665s1.456 3.64 3.718 3.64zm-.039-5.785c.936 0 1.612.481 1.846 1.352h-3.744c.286-.819.988-1.352 1.898-1.352z" fill="#fff"/></g><defs><filter id="filter0_d_220_28" x="0" y="0" width="163" height="33" filterUnits="userSpaceOnUse" color-interpolation-filters="sRGB"><feFlood flood-opacity="0" result="BackgroundImageFix"/><feColorMatrix in="SourceAlpha" values="0 0 0 0 0 0 0 0 0 0 0 0 0 0 0 0 0 0 127 0" result="hardAlpha"/><feOffset dy="1"/><feGaussianBlur stdDeviation="2"/><feComposite in2="hardAlpha" operator="out"/><feColorMatrix values="0 0 0 0 0 0 0 0 0 0 0 0 0 0 0 0 0 0 0.25 0"/><feBlend in2="BackgroundImageFix" result="effect1_dropShadow_220_28"/><feBlend in="SourceGraphic" in2="effect1_dropShadow_220_28" result="shape"/></filter></defs></svg>