<svg width="352" height="19" viewBox="0 0 352 19" fill="none" xmlns="http://www.w3.org/2000/svg"><path d="M.45 6.594h1.8V15h1.458V6.594h2.646V5.28H3.708v-.738c0-2.016.324-2.34 2.304-2.34h.342V.816h-.45c-2.844 0-3.654.81-3.654 3.708v.756H.45v1.314zM8.328 15h1.494V5.28H8.328V15zM7.914 2.292c0 .666.486 1.17 1.152 1.17.684 0 1.17-.504 1.17-1.17 0-.666-.486-1.17-1.17-1.17-.648 0-1.152.504-1.152 1.17zM12.44 15h1.475V9.6c0-1.872 1.332-3.186 3.06-3.186 1.89 0 2.934 1.224 2.934 3.114V15h1.494V9.456c0-2.718-1.602-4.374-4.14-4.374-1.511 0-2.717.738-3.383 1.818V5.28h-1.44V15zm14.465.198c1.674 0 3.168-.72 4.032-1.908V15h1.44V8.808c0-2.196-1.494-3.726-4.266-3.726-2.016 0-3.42.828-4.392 2.088l1.278.81c.666-1.026 1.638-1.638 3.096-1.638 1.89 0 2.844.99 2.844 2.466v.378H27.86c-2.718 0-4.41 1.152-4.41 3.15 0 1.566 1.134 2.862 3.456 2.862zm.27-1.296c-1.53 0-2.214-.72-2.214-1.674 0-1.206.954-1.854 2.97-1.854h3.006v1.332c-.774 1.44-2.304 2.196-3.762 2.196zM34.941 15h1.475V9.6c0-1.872 1.333-3.186 3.06-3.186 1.89 0 2.934 1.224 2.934 3.114V15h1.495V9.456c0-2.718-1.602-4.374-4.14-4.374-1.513 0-2.718.738-3.385 1.818V5.28h-1.44V15zm16.176.198c2.233 0 3.87-1.26 4.627-3.06l-1.368-.576c-.54 1.278-1.674 2.25-3.24 2.25-2.053 0-3.637-1.656-3.637-3.672 0-2.034 1.548-3.672 3.582-3.672 1.512 0 2.682.828 3.258 2.16l1.35-.594c-.737-1.746-2.465-2.952-4.59-2.952-2.843 0-5.075 2.178-5.075 5.058 0 2.808 2.195 5.058 5.093 5.058zm6.71-.198h1.495V5.28h-1.494V15zm-.413-12.708c0 .666.486 1.17 1.152 1.17.684 0 1.17-.504 1.17-1.17 0-.666-.486-1.17-1.17-1.17-.648 0-1.152.504-1.152 1.17zm7.443 12.906c1.674 0 3.168-.72 4.032-1.908V15h1.44V8.808c0-2.196-1.494-3.726-4.266-3.726-2.016 0-3.42.828-4.392 2.088l1.278.81c.666-1.026 1.638-1.638 3.096-1.638 1.89 0 2.844.99 2.844 2.466v.378h-3.078c-2.718 0-4.41 1.152-4.41 3.15 0 1.566 1.134 2.862 3.456 2.862zm.27-1.296c-1.53 0-2.214-.72-2.214-1.674 0-1.206.954-1.854 2.97-1.854h3.006v1.332c-.774 1.44-2.304 2.196-3.762 2.196zM72.91 15h1.476V.816H72.91V15zm12.017.198c2.538.018 3.834-1.494 3.834-3.024 0-1.998-1.836-2.466-3.51-2.79-1.512-.306-2.682-.504-2.682-1.512 0-.9.612-1.548 2.106-1.548 1.242 0 2.088.522 2.664 1.296l1.224-.828c-.864-1.062-2.088-1.728-3.888-1.728-2.304-.018-3.618 1.314-3.618 2.826 0 1.944 1.782 2.394 3.456 2.718 1.422.288 2.754.504 2.754 1.584 0 .972-.792 1.692-2.304 1.692-1.476 0-2.466-.63-3.132-1.584l-1.278.864c.864 1.242 2.25 2.034 4.374 2.034zm10.629 0c2.124 0 3.528-.918 4.518-2.466l-1.26-.738c-.666 1.188-1.71 1.872-3.258 1.872-2.052 0-3.474-1.314-3.69-3.168h8.586v-.666c0-2.88-2.106-4.95-4.95-4.95-2.916 0-5.076 2.232-5.076 5.094 0 2.844 2.016 5.022 5.13 5.022zm-.054-8.802c1.89 0 3.204 1.17 3.438 3.006h-7.038c.324-1.728 1.746-3.006 3.6-3.006zM102.669 15h1.458V9.672c0-2.142.936-3.078 2.556-3.078.522 0 .918.126 1.188.306l.612-1.404c-.378-.234-.954-.36-1.62-.36-1.386 0-2.358.684-2.772 1.98V5.28h-1.422V15zm10.899 0h1.458l4.086-9.72h-1.566l-3.186 7.92-3.132-7.92h-1.566l3.906 9.72zm7.277 0h1.494V5.28h-1.494V15zm-.414-12.708c0 .666.486 1.17 1.152 1.17.684 0 1.17-.504 1.17-1.17 0-.666-.486-1.17-1.17-1.17-.648 0-1.152.504-1.152 1.17zm9.226 12.906c2.232 0 3.87-1.26 4.626-3.06l-1.368-.576c-.54 1.278-1.674 2.25-3.24 2.25-2.052 0-3.636-1.656-3.636-3.672 0-2.034 1.548-3.672 3.582-3.672 1.512 0 2.682.828 3.258 2.16l1.35-.594c-.738-1.746-2.466-2.952-4.59-2.952-2.844 0-5.076 2.178-5.076 5.058 0 2.808 2.196 5.058 5.094 5.058zm11.338 0c2.124 0 3.528-.918 4.518-2.466l-1.26-.738c-.666 1.188-1.71 1.872-3.258 1.872-2.052 0-3.474-1.314-3.69-3.168h8.586v-.666c0-2.88-2.106-4.95-4.95-4.95-2.916 0-5.076 2.232-5.076 5.094 0 2.844 2.016 5.022 5.13 5.022zm-.054-8.802c1.89 0 3.204 1.17 3.438 3.006h-7.038c.324-1.728 1.746-3.006 3.6-3.006zm10.713 8.802c2.538.018 3.834-1.494 3.834-3.024 0-1.998-1.836-2.466-3.51-2.79-1.512-.306-2.682-.504-2.682-1.512 0-.9.612-1.548 2.106-1.548 1.242 0 2.088.522 2.664 1.296l1.224-.828c-.864-1.062-2.088-1.728-3.888-1.728-2.304-.018-3.618 1.314-3.618 2.826 0 1.944 1.782 2.394 3.456 2.718 1.422.288 2.754.504 2.754 1.584 0 .972-.792 1.692-2.304 1.692-1.476 0-2.466-.63-3.132-1.584l-1.278.864c.864 1.242 2.25 2.034 4.374 2.034zm9.424-8.604h1.89v5.472c0 2.142.972 3.078 2.754 3.078.81 0 1.44-.252 1.998-.684l-.774-1.17c-.324.306-.684.468-1.116.468-.828 0-1.404-.486-1.404-1.728V6.594h2.844V5.28h-2.844V2.202l-1.458.936V5.28h-1.89v1.314zm12.382 8.604c2.862 0 5.058-2.25 5.058-5.058 0-2.844-2.214-5.058-5.058-5.058-2.826 0-5.04 2.214-5.04 5.058 0 2.862 2.178 5.058 5.04 5.058zm0-1.404c-2.016 0-3.546-1.566-3.546-3.654 0-2.07 1.53-3.672 3.546-3.672s3.564 1.602 3.564 3.672c0 2.07-1.53 3.654-3.564 3.654zM185.181 15h1.476V9.6c0-1.872 1.332-3.186 3.042-3.186 1.908 0 2.934 1.224 2.934 3.114V15h1.512V9.456c0-2.718-1.602-4.374-4.14-4.374-1.476 0-2.682.702-3.366 1.764V.816h-1.458V15zm16.213.198c2.124 0 3.528-.918 4.518-2.466l-1.26-.738c-.666 1.188-1.71 1.872-3.258 1.872-2.052 0-3.474-1.314-3.69-3.168h8.586v-.666c0-2.88-2.106-4.95-4.95-4.95-2.916 0-5.076 2.232-5.076 5.094 0 2.844 2.016 5.022 5.13 5.022zm-.054-8.802c1.89 0 3.204 1.17 3.438 3.006h-7.038c.324-1.728 1.746-3.006 3.6-3.006zM208.525 15h1.476V.816h-1.476V15zm9.224.198c2.754 0 4.95-2.088 4.95-5.058 0-2.97-2.232-5.058-4.932-5.058-1.44 0-2.916.738-3.672 1.98V5.28h-1.44v13.464h1.458v-5.418c.756 1.206 2.196 1.872 3.636 1.872zm-.126-1.386c-2.07 0-3.636-1.638-3.636-3.69 0-2.016 1.566-3.69 3.636-3.69 2.034 0 3.582 1.62 3.582 3.69 0 2.124-1.548 3.69-3.582 3.69zm12.506 4.626c1.692 0 2.574-.828 3.51-3.006l4.41-10.152h-1.602l-3.096 7.524-3.258-7.524h-1.602l4.068 9.252-.216.468c-.72 1.602-1.206 2.034-2.232 2.034-.63 0-1.026-.252-1.404-.666l-.954 1.206c.576.522 1.422.864 2.376.864zm13.749-3.24c2.862 0 5.058-2.25 5.058-5.058 0-2.844-2.214-5.058-5.058-5.058-2.826 0-5.04 2.214-5.04 5.058 0 2.862 2.178 5.058 5.04 5.058zm0-1.404c-2.016 0-3.546-1.566-3.546-3.654 0-2.07 1.53-3.672 3.546-3.672s3.564 1.602 3.564 3.672c0 2.07-1.53 3.654-3.564 3.654zm11.271 1.404c1.476 0 2.628-.72 3.276-1.8V15h1.44V5.28h-1.476v5.382c0 1.872-1.278 3.186-2.988 3.186-1.872 0-2.844-1.224-2.844-3.114V5.28h-1.494v5.526c0 2.736 1.44 4.392 4.086 4.392zm7.323-.198h1.458V9.672c0-2.142.936-3.078 2.556-3.078.522 0 .918.126 1.188.306l.612-1.404c-.378-.234-.954-.36-1.62-.36-1.386 0-2.358.684-2.772 1.98V5.28h-1.422V15zm17.153.198c2.754 0 4.95-2.088 4.95-5.058 0-2.97-2.232-5.058-4.932-5.058-1.44 0-2.88.72-3.654 1.908V.798h-1.458V15h1.44v-1.728c.774 1.224 2.232 1.926 3.654 1.926zm-.126-1.386c-2.07 0-3.636-1.638-3.636-3.69 0-2.016 1.566-3.69 3.636-3.69 2.016 0 3.564 1.62 3.564 3.69 0 2.124-1.548 3.69-3.564 3.69zm11.245 1.386c1.476 0 2.628-.72 3.276-1.8V15h1.44V5.28h-1.476v5.382c0 1.872-1.278 3.186-2.988 3.186-1.872 0-2.844-1.224-2.844-3.114V5.28h-1.494v5.526c0 2.736 1.44 4.392 4.086 4.392zm10.869 0c2.538.018 3.834-1.494 3.834-3.024 0-1.998-1.836-2.466-3.51-2.79-1.512-.306-2.682-.504-2.682-1.512 0-.9.612-1.548 2.106-1.548 1.242 0 2.088.522 2.664 1.296l1.224-.828c-.864-1.062-2.088-1.728-3.888-1.728-2.304-.018-3.618 1.314-3.618 2.826 0 1.944 1.782 2.394 3.456 2.718 1.422.288 2.754.504 2.754 1.584 0 .972-.792 1.692-2.304 1.692-1.476 0-2.466-.63-3.132-1.584l-1.278.864c.864 1.242 2.25 2.034 4.374 2.034zm5.894-.198h1.494V5.28h-1.494V15zm-.414-12.708c0 .666.486 1.17 1.152 1.17.684 0 1.17-.504 1.17-1.17 0-.666-.486-1.17-1.17-1.17-.648 0-1.152.504-1.152 1.17zM311.62 15h1.476V9.6c0-1.872 1.332-3.186 3.06-3.186 1.89 0 2.934 1.224 2.934 3.114V15h1.494V9.456c0-2.718-1.602-4.374-4.14-4.374-1.512 0-2.718.738-3.384 1.818V5.28h-1.44V15zm16.213.198c2.124 0 3.528-.918 4.518-2.466l-1.26-.738c-.666 1.188-1.71 1.872-3.258 1.872-2.052 0-3.474-1.314-3.69-3.168h8.586v-.666c0-2.88-2.106-4.95-4.95-4.95-2.916 0-5.076 2.232-5.076 5.094 0 2.844 2.016 5.022 5.13 5.022zm-.054-8.802c1.89 0 3.204 1.17 3.438 3.006h-7.038c.324-1.728 1.746-3.006 3.6-3.006zm10.713 8.802c2.538.018 3.834-1.494 3.834-3.024 0-1.998-1.836-2.466-3.51-2.79-1.512-.306-2.682-.504-2.682-1.512 0-.9.612-1.548 2.106-1.548 1.242 0 2.088.522 2.664 1.296l1.224-.828c-.864-1.062-2.088-1.728-3.888-1.728-2.304-.018-3.618 1.314-3.618 2.826 0 1.944 1.782 2.394 3.456 2.718 1.422.288 2.754.504 2.754 1.584 0 .972-.792 1.692-2.304 1.692-1.476 0-2.466-.63-3.132-1.584l-1.278.864c.864 1.242 2.25 2.034 4.374 2.034zm9.544 0c2.538.018 3.834-1.494 3.834-3.024 0-1.998-1.836-2.466-3.51-2.79-1.512-.306-2.682-.504-2.682-1.512 0-.9.612-1.548 2.106-1.548 1.242 0 2.088.522 2.664 1.296l1.224-.828c-.864-1.062-2.088-1.728-3.888-1.728-2.304-.018-3.618 1.314-3.618 2.826 0 1.944 1.782 2.394 3.456 2.718 1.422.288 2.754.504 2.754 1.584 0 .972-.792 1.692-2.304 1.692-1.476 0-2.466-.63-3.132-1.584l-1.278.864c.864 1.242 2.25 2.034 4.374 2.034z" fill="#193526"/></svg>