<svg width="196" height="31" viewBox="0 0 196 31" fill="none" xmlns="http://www.w3.org/2000/svg"><path d="M2.48 30.2c2.79 0 4.898-1.829 6.634-6.324l5.425-13.671 1.364-1.891V8.19h-4.557v.124l1.891 1.891-3.658 9.796L5.611 9.74l1.426-1.395V8.19H0v.155L1.178 9.74l6.2 14.849c-1.085 2.542-1.767 3.162-2.945 3.162-.186 0-.372-.031-.558-.062L.434 25.891H.31v3.906c.434.248 1.333.403 2.17.403zm21.34-5.735c4.774 0 8.06-3.534 8.06-8.556 0-4.898-3.131-8.184-7.75-8.184-4.774 0-8.03 3.534-8.03 8.556 0 4.898 3.1 8.184 7.72 8.184zm.527-1.178c-2.45 0-4.061-3.131-4.061-8.029 0-4.154 1.209-6.386 3.317-6.386 2.449 0 4.092 3.131 4.092 8.029 0 4.154-1.24 6.386-3.348 6.386zm15.317 1.178c1.922 0 3.72-.93 5.425-2.821h.187l.371 2.821 5.178-1.271v-.155l-1.582-1.457V7.725h-.31l-5.456 1.488v.155l1.706 1.55v9.61c-1.178.992-2.264 1.488-3.349 1.488-1.58 0-2.51-.992-2.51-2.635V7.694h-.31l-5.457 1.488v.155l1.706 1.55v9.393c0 2.449 1.767 4.185 4.401 4.185zm15.013-2.015l-1.426 1.395V24h7.13v-.155l-1.643-1.395V12.251c.403-.93 1.55-1.736 2.325-1.736.093 0 .186 0 .28.031l2.913 1.953h.155V8.128c-.279-.248-.868-.403-1.519-.403-1.519 0-2.697.899-4.092 3.193h-.155l-.217-3.193h-.31l-5.146 1.457v.124l1.705 1.55V22.45zm34.073-7.068c0-4.433-2.635-7.657-6.293-7.657-1.705 0-3.038.713-4.62 2.542h-.185V.13h-.31l-5.456 1.488v.124l1.705 1.55v20.305c1.829.589 4.092.899 5.704.899 5.58 0 9.455-3.751 9.455-9.114zm-3.875 1.829c0 3.751-1.86 6.045-4.681 6.045-1.054 0-1.953-.31-2.542-.744V11.414c.527-.682 1.302-1.116 2.325-1.116 2.852 0 4.898 2.914 4.898 6.913zm11.643 7.254c1.922 0 3.72-.93 5.425-2.821h.186l.372 2.821 5.177-1.271v-.155l-1.581-1.457V7.725h-.31l-5.456 1.488v.155l1.705 1.55v9.61c-1.178.992-2.263 1.488-3.348 1.488-1.581 0-2.511-.992-2.511-2.635V7.694h-.31l-5.456 1.488v.155l1.705 1.55v9.393c0 2.449 1.767 4.185 4.402 4.185zm18.919 0c4.03 0 6.603-2.139 6.603-5.456 0-5.363-8.029-3.875-8.029-7.781 0-1.488 1.085-2.511 2.635-2.511.403 0 .775.062 1.054.186l3.286 2.79h.155V8.562c-1.054-.496-2.852-.837-4.371-.837-3.751 0-6.231 2.077-6.231 5.146 0 5.394 7.998 3.906 7.998 7.812 0 1.643-1.178 2.759-2.852 2.759-.434 0-.899-.093-1.302-.31l-4.061-3.286h-.155v3.503c1.085.589 3.565 1.116 5.27 1.116zm12.429-19.964c1.395 0 2.325-.837 2.325-2.201s-.93-2.17-2.325-2.17c-1.426 0-2.356.806-2.356 2.17 0 1.364.93 2.201 2.356 2.201zM131.338 24v-.124l-1.457-1.426V7.725h-.31l-5.456 1.488v.124l1.705 1.55V22.45l-1.426 1.426V24h6.944zm8.049-12.369c1.178-.992 2.325-1.457 3.441-1.457 1.612 0 2.604.992 2.604 2.604v9.61l-1.457 1.457V24h6.944v-.155l-1.426-1.395V11.91c0-2.48-1.829-4.185-4.495-4.185-1.984 0-3.813.93-5.518 2.821h-.186l-.217-2.821h-.31l-5.146 1.426v.155l1.705 1.55V22.45l-1.426 1.395V24h6.944v-.155l-1.457-1.395V11.631zm21.053 12.834c3.751 0 6.386-2.294 7.099-6.107l-.155-.093c-1.302 2.17-3.131 3.286-5.332 3.286-3.41 0-5.673-2.635-5.859-6.727h11.129c-.837-4.681-3.131-7.099-6.727-7.099-4.402 0-7.719 3.689-7.719 8.649 0 4.836 3.1 8.091 7.564 8.091zm-.651-15.593c1.891 0 3.007 1.426 3.658 4.898h-7.254c.155-3.131 1.457-4.898 3.596-4.898zm15.044 15.593c4.03 0 6.603-2.139 6.603-5.456 0-5.363-8.029-3.875-8.029-7.781 0-1.488 1.085-2.511 2.635-2.511.403 0 .775.062 1.054.186l3.286 2.79h.155V8.562c-1.054-.496-2.852-.837-4.371-.837-3.751 0-6.231 2.077-6.231 5.146 0 5.394 7.998 3.906 7.998 7.812 0 1.643-1.178 2.759-2.852 2.759-.434 0-.899-.093-1.302-.31l-4.061-3.286h-.155v3.503c1.085.589 3.565 1.116 5.27 1.116zm14.289 0c4.03 0 6.603-2.139 6.603-5.456 0-5.363-8.029-3.875-8.029-7.781 0-1.488 1.085-2.511 2.635-2.511.403 0 .775.062 1.054.186l3.286 2.79h.155V8.562c-1.054-.496-2.852-.837-4.371-.837-3.751 0-6.231 2.077-6.231 5.146 0 5.394 7.998 3.906 7.998 7.812 0 1.643-1.178 2.759-2.852 2.759-.434 0-.899-.093-1.302-.31l-4.061-3.286h-.155v3.503c1.085.589 3.565 1.116 5.27 1.116z" fill="#193526"/></svg>