<svg width="71" height="9" viewBox="0 0 71 9" fill="none" xmlns="http://www.w3.org/2000/svg"><path d="M.359 8h.56V1.66l2.81 3.84 2.92-3.91V8h.56V.7h-.55l-2.92 3.89L.929.7h-.57V8zm11.181.11c1.19 0 1.96-.49 2.55-1.44l-.51-.28c-.42.79-1.08 1.2-2.05 1.2-1.28 0-2.19-.87-2.28-2.06h5.01v-.29c0-1.61-1.16-2.75-2.72-2.75-1.65 0-2.84 1.24-2.84 2.84 0 1.59 1.09 2.78 2.84 2.78zm0-5.1c1.21 0 2.03.81 2.13 1.99h-4.4c.15-1.13 1.06-1.99 2.27-1.99zM15.678 8h.56V4.94c0-1.16.8-1.93 1.87-1.93 1.09 0 1.78.69 1.78 1.73V8h.56V4.85c0-1.13.83-1.84 1.86-1.84 1.13 0 1.86.77 1.86 1.82V8h.56V4.87c0-1.42-.9-2.38-2.41-2.38-1.01 0-1.8.54-2.11 1.31-.28-.79-.99-1.31-2.06-1.31-.91 0-1.59.45-1.93 1.11v-1h-.54V8zm13.424.11c1.65 0 2.8-1.19 2.8-2.81 0-1.59-1.21-2.81-2.78-2.81-.84 0-1.76.45-2.2 1.25V.12h-.55V8h.54V6.85c.44.81 1.36 1.26 2.19 1.26zm0-.54c-1.28 0-2.25-1.01-2.25-2.27 0-1.25.97-2.28 2.25-2.28 1.26 0 2.21.99 2.21 2.28 0 1.33-.95 2.27-2.21 2.27zm6.843.54c1.19 0 1.96-.49 2.55-1.44l-.51-.28c-.42.79-1.08 1.2-2.05 1.2-1.28 0-2.19-.87-2.28-2.06h5.01v-.29c0-1.61-1.16-2.75-2.72-2.75-1.65 0-2.84 1.24-2.84 2.84 0 1.59 1.09 2.78 2.84 2.78zm0-5.1c1.21 0 2.03.81 2.13 1.99h-4.4c.15-1.13 1.06-1.99 2.27-1.99zM40.083 8h.55V5.12c0-1.4.54-2.07 1.57-2.07.28 0 .49.08.64.18l.27-.52c-.21-.12-.53-.19-.89-.19-.85 0-1.39.41-1.62 1.16V2.6h-.52V8zm6.8 0h.58V4.82h4.04v-.55h-4.04V1.25h4.04V.7h-4.62V8zm6.103 0h2.17c2.12 0 3.76-1.57 3.76-3.65 0-2.07-1.58-3.65-3.78-3.65h-2.15V8zm2.11-6.77c1.91 0 3.23 1.35 3.23 3.12s-1.38 3.11-3.21 3.11h-1.55V1.23h1.53zM60.654 8h.57V.7h-.57V8zm6.057.1c1.47 0 2.68-.79 3.32-1.97l-.51-.26c-.52 1-1.53 1.68-2.81 1.68-1.78 0-3.16-1.44-3.16-3.2 0-1.76 1.38-3.21 3.16-3.21 1.18 0 2.18.65 2.72 1.59l.5-.29A3.751 3.751 0 0066.711.6c-2.07 0-3.75 1.68-3.75 3.75 0 2.07 1.68 3.75 3.75 3.75z" fill="#193526"/></svg>