<svg width="232" height="53" viewBox="0 0 232 53" fill="none" xmlns="http://www.w3.org/2000/svg"><path d="M96.515 40.25h-3.144v-1.995h8.413v1.995h-3.115v9.207h-2.154V40.25z" fill="#ED4536"/><path d="M100.451 45.315c0-2.393 1.907-4.313 4.416-4.313 2.51 0 4.432 1.918 4.432 4.313 0 2.395-1.906 4.313-4.432 4.313-2.525 0-4.416-1.934-4.416-4.313zm6.724-.016a2.297 2.297 0 00-2.294-2.317 2.297 2.297 0 00-2.294 2.317c0 1.289 1.007 2.317 2.294 2.317 1.288 0 2.294-1.028 2.294-2.317zM110.29 45.3c0-2.625 1.923-4.298 4.06-4.298 1.116 0 2.045.492 2.603 1.258v-1.09h2.138v7.672c0 2.409-1.814 4.158-4.385 4.158-1.906 0-3.16-.552-4.105-1.641l1.766-1.365c.558.72 1.177 1.12 2.278 1.12 1.349 0 2.308-.905 2.308-2.21v-.628c-.589.813-1.548 1.304-2.634 1.304-2.061 0-4.029-1.656-4.029-4.28zm6.772-.016c0-1.305-1.007-2.333-2.324-2.333s-2.324 1.013-2.324 2.333a2.307 2.307 0 002.324 2.332 2.316 2.316 0 002.324-2.332zM120.191 45.329c0-2.41 1.891-4.327 4.384-4.327 2.494 0 4.324 1.796 4.324 4.25v.797h-6.647c.278 1.074 1.163 1.75 2.401 1.75.99 0 1.657-.43 2.076-1.105l1.75 1.012c-.836 1.165-2.015 1.917-3.858 1.917-2.696 0-4.432-1.887-4.432-4.296l.002.002zm2.122-.937h4.462c-.279-1.028-1.084-1.596-2.202-1.596-1.117 0-1.922.629-2.262 1.596h.002zM129.409 41.17h1.548v-1.795l2.109-1.228v3.022h2.201v1.872h-2.201v3.406c0 .875.372 1.18.913 1.18.295 0 .527-.091.776-.307l.977 1.657c-.542.4-1.224.629-2 .629-1.75 0-2.773-.828-2.773-3.085v-3.484h-1.548v-1.872l-.002.006zM136.6 37.365h2.122v4.818c.558-.736 1.41-1.18 2.433-1.18 1.984 0 3.253 1.288 3.253 3.452v5.002h-2.201v-4.68c0-1.182-.574-1.918-1.705-1.918-1.006 0-1.782.736-1.782 2.025v4.573h-2.122V37.365h.002zM145.478 45.329c0-2.41 1.891-4.327 4.385-4.327 2.494 0 4.323 1.796 4.323 4.25v.797h-6.647c.279 1.074 1.163 1.75 2.401 1.75.991 0 1.657-.43 2.076-1.105l1.751 1.012c-.837 1.165-2.016 1.917-3.859 1.917-2.695 0-4.432-1.887-4.432-4.296l.002.002zm2.122-.937h4.462c-.279-1.028-1.084-1.596-2.201-1.596-1.118 0-1.923.629-2.263 1.596h.002zM155.27 41.17h2.108v1.274c.403-.981 1.24-1.428 2.308-1.428.558 0 1.054.14 1.41.323l-.775 2.088c-.233-.168-.635-.292-1.116-.292-1.099 0-1.813.553-1.813 1.949v4.373h-2.122v-8.286z" fill="#ED4536"/><path d="M165.273 49.46v-.083l.795-.69v-6.76h-1.21v-.082l1.226-.885c.2-2.396 1.559-4.135 3.263-4.135.333 0 .746.067.962.165v1.755h-.084l-2.104-.919c-.579.098-1.06 1.067-1.06 2.117 0 .854.382 1.23 1.226 1.23h1.673l-.116.754h-1.972v6.76l1.078.69v.082h-3.679.002zM170.095 45.423c0-2.609 1.707-4.497 4.141-4.497 2.435 0 3.944 1.74 3.944 4.283 0 2.544-1.707 4.497-4.141 4.497-2.435 0-3.944-1.74-3.944-4.283zm6.196.295c0-2.544-.945-4.216-2.353-4.216-1.226 0-1.956 1.23-1.956 3.413 0 2.544.945 4.217 2.353 4.217 1.226 0 1.956-1.23 1.956-3.414zM179.92 42.518l-.945-.771v-.083l2.452-.738h.149l.116 1.657h.083c.762-1.181 1.393-1.657 2.221-1.657.364 0 .697.098.863.213v2.051h-.083l-1.476-.985c-.049-.016-.099-.016-.148-.016-.465 0-1.177.51-1.424 1.083v5.415l.862.69v.082h-3.463v-.082l.795-.69v-6.169h-.002zM192.216 49.721c-.813 0-1.889-.164-2.85-.491V38.433l-.928-.772v-.066l2.585-.772h.166v5.43h.099c.845-.95 1.525-1.329 2.437-1.329 1.938 0 3.346 1.69 3.346 4.02 0 2.79-2.021 4.776-4.855 4.776v.002zm.431-7.58c-.647 0-1.143.277-1.458.722v5.824c.348.247.878.41 1.476.41 1.608 0 2.684-1.248 2.684-3.298s-1.11-3.659-2.702-3.659zM197.965 45.49c0-2.61 1.741-4.562 4.009-4.562 1.824 0 3.032 1.279 3.479 3.692h-6.014c.033 2.264 1.275 3.74 3.148 3.74 1.193 0 2.17-.622 2.884-1.854l.083.049c-.382 1.952-1.741 3.15-3.661 3.15-2.32 0-3.928-1.69-3.928-4.216zm1.491-1.395h4.225c-.382-1.822-1.011-2.593-2.089-2.593-1.21 0-2.005.967-2.138 2.593h.002zM207.094 48.294v-6.367h-1.176v-.083l2.717-2.215h.281v1.544h2.385l-.117.754h-2.27v5.446c0 .886.447 1.297 1.177 1.297.48 0 .977-.198 1.392-.592l.067.05a2.762 2.762 0 01-2.502 1.574c-.945 0-1.74-.46-1.956-1.41l.002.002zM212.945 48.294v-6.367h-1.177v-.083l2.717-2.215h.281v1.544h2.385l-.116.754h-2.271v5.446c0 .886.447 1.297 1.177 1.297.48 0 .977-.198 1.392-.592l.067.05a2.762 2.762 0 01-2.501 1.574c-.946 0-1.741-.46-1.956-1.41l.002.002zM217.883 45.49c0-2.61 1.74-4.562 4.009-4.562 1.823 0 3.032 1.279 3.479 3.692h-6.015c.034 2.264 1.276 3.74 3.149 3.74 1.193 0 2.17-.622 2.884-1.854l.083.049c-.382 1.952-1.741 3.15-3.661 3.15-2.32 0-3.928-1.69-3.928-4.216zm1.491-1.395h4.225c-.382-1.822-1.011-2.593-2.089-2.593-1.21 0-2.005.967-2.138 2.593h.002zM227.062 42.518l-.946-.771v-.083l2.453-.738h.148l.117 1.657h.083c.761-1.181 1.392-1.657 2.221-1.657.364 0 .696.098.862.213v2.051h-.083l-1.475-.985c-.05-.016-.099-.016-.149-.016-.465 0-1.177.51-1.424 1.083v5.415l.862.69v.082h-3.463v-.082l.796-.69v-6.169h-.002zM168.198 13.629c1.225-.01 3.319.268 3.315 1.839-.008 1.58-1.683 2.689-3.319 2.744l.004-4.585v.002zm-.012 6.392c2.121-.113 3.875.713 3.891 2.165-.01 1.564-2.12 2.59-3.904 2.736l.013-4.9zm-2.474 7.133c6.839-.012 10.466-2.605 10.478-5.12.006-2.015-2.146-3.058-3.777-3.333v-.143c2.508-1.051 2.982-2.495 2.986-3.335-.008-1.214-.556-2.998-5.51-3.502-1.527-.111-3.004-.223-5.632-.215.144.495.148 4.268.14 4.955l-.004 2.475c-.004.422-.008 7.049-.152 8.206l1.471.014v-.002zm35.694.18c-.071-.771.072-8.905.072-9.624.292.367 10.26 8.672 12.129 9.887l.142-.05c.058-1.944.289-5.332.424-8.495.229-3.228.385-6.23.534-7.509l-3.762-.15c0 .94-.095 8.652-.095 9.572-.779-.628-9.906-8.294-12.092-9.904l-.158.07c-.15 1.337-.394 4.936-.607 8.42-.117 3.49-.352 6.834-.431 7.678l3.842.107.002-.002zm20.45.083c-.075-.437-.146-5.425-.146-7.09l.008-.784.158.006c1.45 1.896 6.778 7.57 7.062 7.944l3.06-2.609c-.844-.899-5.231-4.994-6.076-5.838 1.25-1.171 4.725-4.265 5.669-5.184l-2.842-2.472c-.495.6-5.613 5.846-6.885 7.317l-.152-.013v-.739c.006-1.984.097-6.251.162-6.612h-4.193c-.01.494.062 4.902.062 6.798l-.004 2.403c-.012 2.491-.084 6.248-.091 6.869l4.206.004h.002zM27.692 28.633l5.113 2.174-.617 1.472-4.723-1.58-4.727 2.424-4.387-1.915-4.517 2.19-4.867-2.302-4.618 1.875-.76-1.4 5.087-2.472 5.625 1.972 3.9-2.078 3.997 1.86 5.498-2.22h-.004zM18.04 3.693l6.038 6.22-5.44-.877 7.258 7.13-7.74-1.56 7.421 7.249-8.41-1.773 1.126 6.814-3.499-.004.926-6.704-6.287 3.494 4.996-8.774-5.483 2.744 6.604-9.358-4.112 1.075 6.602-5.673v-.002zM3.014 0L1.315.114.047 9.087l.315 10.97-.17 10.82L0 38.272l10.013-.107 13.445.28 9.226-.711 3.712-.412-.306-15.904-1.189-9.41.645-10.659L12.549.135 3.014 0zm60.46 15.284c.005-1.647.011-3.179.011-3.649l-3.987-.008c.067.77.182 2.168.172 3.655v.781c-.006 3.982-.075 5.555-.892 6.747-.603.84-1.546 1.406-2.786 1.402-1.039-.005-2.04-.378-2.67-1.32-.855-1.155-1.05-2.673-1.039-5.928l.006-1.4c.008-1.933.075-3.087.19-3.606l-4.114.004c0 .47.002 2.166 0 3.106l-.004 1.136c0 5.198.357 6.757 1.46 8.328 1.636 2.305 4.29 2.579 5.888 2.587 2.462 0 4.418-.754 5.848-2.329 1.675-1.935 1.908-4.424 1.92-8.521l-.006-.983.002-.002zm3.913 12.107c.329-.899 2.724-7.892 3.133-8.868h.03c.395.858 2.94 5.127 4.525 7.509l.097-.006c1.434-1.814 4.776-6.992 5.286-7.599.253.496 2.856 7.266 3.623 8.962l3.447-1.451c-.787-1.584-5.064-11.496-6.328-14.05l-.103.004c-.91 1.357-4.725 7.467-5.561 8.635-.667-1.029-4.353-7.278-5.469-9.117l-.132.008c-.833 1.835-5.506 13.927-5.936 14.786l3.39 1.187h-.002zm25.99-13.221c3.318.1 3.866 1.674 3.864 2.759-.004 1.982-1.944 3.212-3.874 3.604l.008-6.364h.002zm-.02 12.892c-.006-.39-.004-2.81.006-3.235l.008-.893c5.065-.829 7.919-3.637 7.925-6.56.002-2.438-2.016-3.722-4.694-4.253-1.685-.345-4.216-.476-7.262-.476.004.345.133 4.806.125 5.317l-.006 2.388c0 1.515-.073 6.825-.137 7.712h4.035zm13.71-7.436c.007-2.756 1.592-5.353 4.851-5.357 2.185.01 4.256 1.52 4.246 4.755 0 3.61-2.296 5.39-4.719 5.39-2.284 0-4.38-1.56-4.378-4.786M121 26.106c-1.62-.074-3.303-.174-5.073-.329l.006-.088c2.895-1.477 4.436-4.071 4.438-6.9.012-4.416-3.23-7.252-8.162-7.252-5.805.006-9.361 3.97-9.363 8.253-.014 1.973.781 3.99 2.553 5.43 2.241 1.834 5.407 1.897 5.684 1.899.208.002.809.045 1.745.223 2.49.478 5.296 1.124 7.689 1.61l.481-2.848.002.002zm16.708-10.824c-.004-1.645-.004-3.173-.004-3.645h-3.956c.006.762.071 2.166.065 3.649l-.005.775c0 3.986-.008 5.558-.867 6.751-.591.836-1.509 1.4-2.713 1.4-1.114 0-2.045-.38-2.666-1.32-.944-1.155-1.04-2.677-1.031-5.922v-1.41c.004-1.923.008-3.087.062-3.596h-3.999c0 .463-.052 2.16-.056 3.11v1.138c0 5.186.428 6.751 1.519 8.326 1.612 2.3 4.318 2.577 5.835 2.587 2.501-.01 4.453-.752 5.834-2.333 1.693-1.933 1.964-4.418 1.972-8.52l.006-.988.004-.002zm6.821 5.73c.439-.848 1.926-3.83 2.411-4.66.395.679 1.968 3.524 2.517 4.449l-4.93.211h.002zm-3.111 6.277c.556-.85 1.732-3.388 1.944-3.817l7.167-.339c.269.331 1.978 3.181 2.443 4.158l3.498-1.968c-1.2-1.63-6.965-10.79-9.35-14.291l-.168.008c-1.525 2.274-7.884 12.996-8.799 14.512l3.265 1.737zm42.335-6.28c.439-.849 1.926-3.831 2.411-4.662.396.68 1.968 3.526 2.518 4.45l-4.931.212h.002zm-3.111 6.276c.556-.85 1.733-3.388 1.944-3.817l7.168-.338c.269.33 1.977 3.18 2.442 4.157l3.499-1.968c-1.201-1.63-6.966-10.79-9.351-14.29l-.168.007c-1.525 2.274-7.883 12.996-8.799 14.512l3.265 1.737z" fill="#193526"/></svg>