<svg width="207" height="31" viewBox="0 0 207 31" fill="none" xmlns="http://www.w3.org/2000/svg"><path d="M6.479 24.465c2.139 0 4.03-1.178 4.929-3.1l-.124-.093c-.713.62-1.581.961-2.418.961-1.302 0-2.201-.744-2.201-2.387V9.74h4.03l.217-1.55H6.665V5.028h-.527L.465 9.585v.155h2.139v11.966c.434 1.922 2.077 2.759 3.875 2.759zm13.98 0c4.774 0 8.06-3.534 8.06-8.556 0-4.898-3.13-8.184-7.75-8.184-4.774 0-8.029 3.534-8.029 8.556 0 4.898 3.1 8.184 7.72 8.184zm.527-1.178c-2.449 0-4.06-3.131-4.06-8.029 0-4.154 1.208-6.386 3.316-6.386 2.45 0 4.092 3.131 4.092 8.029 0 4.154-1.24 6.386-3.348 6.386zm21.889-11.656c1.178-.992 2.325-1.457 3.44-1.457 1.613 0 2.605.992 2.605 2.604v9.61l-1.457 1.457V24h6.944v-.155L52.98 22.45V11.91c0-2.48-1.83-4.185-4.495-4.185-1.984 0-3.813.93-5.518 2.821h-.186l-.217-2.821h-.31l-5.146 1.426v.155l1.705 1.55V22.45l-1.426 1.395V24h6.944v-.155l-1.457-1.395V11.631zm21.053 12.834c3.751 0 6.386-2.294 7.1-6.107l-.156-.093c-1.302 2.17-3.13 3.286-5.332 3.286-3.41 0-5.673-2.635-5.859-6.727h11.13c-.838-4.681-3.132-7.099-6.728-7.099-4.402 0-7.719 3.689-7.719 8.649 0 4.836 3.1 8.091 7.564 8.091zm-.65-15.593c1.89 0 3.006 1.426 3.657 4.898h-7.254c.155-3.131 1.457-4.898 3.596-4.898zM88.282 24l4.464-13.795 1.302-1.891V8.19h-4.495v.124l1.891 1.86-2.542 8.835L85.276 8.19h-2.108l-3.844 11.067L76.69 9.74l1.426-1.395V8.19h-6.882v.155l1.178 1.395L76.782 24h2.015l3.906-11.222L86.423 24h1.86zm20.531 0v-.155l-1.457-1.395V11.662c1.178-.992 2.325-1.488 3.41-1.488 1.612 0 2.635.992 2.635 2.635v9.641l-1.457 1.395v.186h6.944v-.186l-1.426-1.395V11.91c0-2.48-1.86-4.185-4.526-4.185-1.922 0-3.658.868-5.394 2.728h-.186V.13h-.31l-5.456 1.457v.155l1.705 1.519V22.45l-1.426 1.333V24h6.944zm19.597.465c3.751 0 6.386-2.294 7.099-6.107l-.155-.093c-1.302 2.17-3.131 3.286-5.332 3.286-3.41 0-5.673-2.635-5.859-6.727h11.129c-.837-4.681-3.131-7.099-6.727-7.099-4.402 0-7.719 3.689-7.719 8.649 0 4.836 3.1 8.091 7.564 8.091zm-.651-15.593c1.891 0 3.007 1.426 3.658 4.898h-7.254c.155-3.131 1.457-4.898 3.596-4.898zm13.184-4.371c1.395 0 2.325-.837 2.325-2.201s-.93-2.17-2.325-2.17c-1.426 0-2.356.806-2.356 2.17 0 1.364.93 2.201 2.356 2.201zM144.416 24v-.124l-1.457-1.426V7.725h-.31l-5.456 1.488v.124l1.705 1.55V22.45l-1.426 1.426V24h6.944zm9.072 6.2c4.929 0 8.68-2.573 8.68-5.983 0-1.612-.806-2.945-2.077-3.348h-8.06c-1.271 0-2.108-.713-2.108-1.736 0-.62.372-1.147 1.023-1.426a8.196 8.196 0 002.511.372c3.751 0 6.634-2.325 6.634-5.208 0-1.55-.837-2.945-2.263-3.627l.031-.124 3.627.961h.155V7.663h-.155l-4.278.899a7.886 7.886 0 00-3.596-.837c-3.627 0-6.479 2.356-6.479 5.332 0 1.953 1.24 3.565 3.162 4.402v.062c-1.798.496-2.976 1.829-2.976 3.472 0 1.178.62 2.077 1.55 2.573v.124l-1.984.837c-.31.279-.465.775-.465 1.364 0 2.48 2.945 4.309 7.068 4.309zm.372-13.113c-1.674 0-2.79-1.705-2.79-4.619 0-2.449.806-3.751 2.294-3.751 1.705 0 2.821 1.736 2.821 4.619 0 2.449-.806 3.751-2.325 3.751zm-4.929 8.091c0-.558.155-1.054.434-1.364.465.155.961.248 1.519.248h6.479c1.302 0 1.922.527 1.922 1.612 0 1.984-2.108 3.348-4.898 3.348-3.1 0-5.456-1.674-5.456-3.844zM170.572 24v-.155l-1.457-1.395V11.662c1.178-.992 2.325-1.488 3.41-1.488 1.612 0 2.635.992 2.635 2.635v9.641l-1.457 1.395v.186h6.944v-.186l-1.426-1.395V11.91c0-2.48-1.86-4.185-4.526-4.185-1.922 0-3.658.868-5.394 2.728h-.186V.13h-.31l-5.456 1.457v.155l1.705 1.519V22.45l-1.426 1.333V24h6.944zm17.427.465c2.139 0 4.03-1.178 4.929-3.1l-.124-.093c-.713.62-1.581.961-2.418.961-1.302 0-2.201-.744-2.201-2.387V9.74h4.03l.217-1.55h-4.247V5.028h-.527l-5.673 4.557v.155h2.139v11.966c.434 1.922 2.077 2.759 3.875 2.759zm11.901 0c4.03 0 6.603-2.139 6.603-5.456 0-5.363-8.029-3.875-8.029-7.781 0-1.488 1.085-2.511 2.635-2.511.403 0 .775.062 1.054.186l3.286 2.79h.155V8.562c-1.054-.496-2.852-.837-4.371-.837-3.751 0-6.231 2.077-6.231 5.146 0 5.394 7.998 3.906 7.998 7.812 0 1.643-1.178 2.759-2.852 2.759-.434 0-.899-.093-1.302-.31l-4.061-3.286h-.155v3.503c1.085.589 3.565 1.116 5.27 1.116z" fill="#193526"/></svg>