<svg width="133" height="25" viewBox="0 0 133 25" fill="none" xmlns="http://www.w3.org/2000/svg"><path d="M16.67 24v-5.115h-.155l-5.146 3.875H6.75V4.16l1.612-1.705V2.3H.643v.155L2.286 4.16v17.949L.643 23.845V24H16.67zm9.87.465c3.75 0 6.386-2.294 7.099-6.107l-.155-.093c-1.302 2.17-3.131 3.286-5.332 3.286-3.41 0-5.673-2.635-5.86-6.727h11.13c-.837-4.681-3.131-7.099-6.727-7.099-4.402 0-7.72 3.689-7.72 8.649 0 4.836 3.1 8.091 7.565 8.091zm-.651-15.593c1.89 0 3.007 1.426 3.658 4.898h-7.254c.155-3.131 1.457-4.898 3.596-4.898zm14.889 15.593c2.139 0 4.03-1.178 4.929-3.1l-.124-.093c-.713.62-1.581.961-2.418.961-1.302 0-2.201-.744-2.201-2.387V9.74h4.03l.217-1.55h-4.247V5.028h-.527l-5.673 4.557v.155h2.139v11.966c.434 1.922 2.077 2.759 3.875 2.759zm5.91-14.291c3.037-.465 5.083-2.48 5.083-5.115 0-2.108-1.302-3.689-3.038-3.689-1.24 0-2.108.806-2.108 1.953 0 .806.434 1.426 1.116 1.612h1.705c.28.155.496.589.496 1.178 0 1.519-1.24 2.945-3.286 3.906l.031.155zm10.017 14.291c4.03 0 6.603-2.139 6.603-5.456 0-5.363-8.029-3.875-8.029-7.781 0-1.488 1.085-2.511 2.635-2.511.403 0 .775.062 1.054.186l3.286 2.79h.155V8.562c-1.054-.496-2.852-.837-4.37-.837-3.752 0-6.232 2.077-6.232 5.146 0 5.394 7.998 3.906 7.998 7.812 0 1.643-1.178 2.759-2.852 2.759-.434 0-.899-.093-1.302-.31l-4.06-3.286h-.156v3.503c1.085.589 3.565 1.116 5.27 1.116zm20.643 0c2.14 0 4.03-1.178 4.93-3.1l-.125-.093c-.713.62-1.58.961-2.418.961-1.302 0-2.2-.744-2.2-2.387V9.74h4.03l.216-1.55h-4.247V5.028h-.527l-5.673 4.557v.155h2.14v11.966c.433 1.922 2.076 2.759 3.874 2.759zm18.374 0c1.24 0 2.387-.744 2.883-1.829v-.155l-1.674-.744V11.538c0-2.263-2.139-3.813-5.27-3.813-3.534 0-5.952 1.953-6.479 5.27l.124.031c1.054-1.767 2.883-2.852 4.774-2.852 1.736 0 2.79.899 2.79 2.325v1.86l-3.007 1.116c-4.092 1.457-5.89 3.131-5.89 5.394 0 2.077 1.52 3.596 3.72 3.596 1.705 0 3.503-.93 5.084-2.573h.217c.155 1.519 1.24 2.573 2.728 2.573zm-8.029-4.898c0-1.426 1.023-2.542 3.193-3.379l1.984-.775v5.456c-.713.837-1.643 1.271-2.573 1.271-1.519 0-2.604-1.054-2.604-2.573zM107.27 24v-.155l-1.457-1.395v-5.177l1.271-1.209 4.247 6.386-1.023 1.395V24h6.758v-.155l-7.161-10.23 5.983-5.27V8.19h-5.394v.155l1.395 1.86-6.076 5.642V.13h-.31l-5.456 1.488v.124l1.705 1.55v19.127l-1.426 1.426V24h6.944zm17.841.465c3.751 0 6.386-2.294 7.099-6.107l-.155-.093c-1.302 2.17-3.131 3.286-5.332 3.286-3.41 0-5.673-2.635-5.859-6.727h11.129c-.837-4.681-3.131-7.099-6.727-7.099-4.402 0-7.719 3.689-7.719 8.649 0 4.836 3.1 8.091 7.564 8.091zm-.651-15.593c1.891 0 3.007 1.426 3.658 4.898h-7.254c.155-3.131 1.457-4.898 3.596-4.898z" fill="#193526"/></svg>